<?xml version="1.0" standalone="no"?>
<!DOCTYPE svg PUBLIC "-//W3C//DTD SVG 20010904//EN"
 "http://www.w3.org/TR/2001/REC-SVG-20010904/DTD/svg10.dtd">
<svg version="1.0" xmlns="http://www.w3.org/2000/svg"
 width="950.000000pt" height="893.000000pt" viewBox="0 0 950.000000 893.000000"
 preserveAspectRatio="xMidYMid meet">

<g transform="translate(0.000000,893.000000) scale(0.100000,-0.100000)"
fill="#000000" stroke="none">
<path d="M0 4465 l0 -4465 4750 0 4750 0 0 4465 0 4465 -4750 0 -4750 0 0
-4465z m4267 3549 c-3 -3 -12 -4 -19 -1 -8 3 -5 6 6 6 11 1 17 -2 13 -5z
m-1137 -259 c0 -2 -10 -9 -22 -15 -22 -11 -22 -10 -4 4 21 17 26 19 26 11z
m-250 -159 c0 -2 -8 -10 -17 -17 -16 -13 -17 -12 -4 4 13 16 21 21 21 13z
m1842 -121 c106 -28 288 -104 386 -162 113 -66 260 -205 309 -293 70 -124 93
-279 59 -392 l-13 -46 106 -70 c140 -92 206 -159 221 -222 10 -40 19 -53 53
-76 161 -106 381 -283 419 -337 21 -29 21 -30 3 -43 -24 -18 -86 -17 -155 1
-39 11 -77 13 -131 9 -60 -5 -82 -3 -107 10 l-32 17 0 -28 c0 -48 34 -85 116
-128 68 -35 81 -46 102 -88 23 -44 24 -51 13 -102 -16 -72 -47 -115 -101 -142
-69 -34 -243 -90 -370 -119 -63 -15 -131 -35 -151 -45 -41 -21 -99 -82 -99
-106 0 -28 112 -10 251 42 184 69 335 115 379 115 53 0 84 -38 99 -123 19
-111 11 -176 -36 -276 -36 -76 -134 -173 -214 -211 -35 -16 -64 -28 -65 -27
-1 1 6 28 17 61 14 39 19 78 17 119 l-3 62 -32 -60 c-18 -33 -41 -71 -52 -84
l-19 -25 -15 36 c-40 94 -206 202 -384 248 -42 11 -43 11 -43 55 0 25 7 62 16
84 l16 39 -50 49 c-37 35 -52 58 -58 88 -17 91 41 236 131 332 30 32 55 59 55
60 0 12 -114 -19 -279 -74 -218 -73 -290 -83 -353 -46 -56 33 -73 75 -73 182
l0 93 -51 -56 c-127 -139 -193 -359 -165 -544 7 -42 14 -86 17 -97 8 -33 -104
94 -148 167 -61 103 -81 174 -81 298 -1 120 12 169 76 293 28 56 64 103 121
162 45 45 92 89 105 98 52 34 10 33 -134 -3 -82 -21 -168 -41 -189 -45 l-39
-7 74 60 c341 275 423 338 487 377 40 23 70 45 65 48 -4 3 -41 8 -81 12 -41 4
-70 11 -65 15 19 18 150 50 251 61 149 16 282 -6 445 -76 35 -15 15 15 -40 61
-77 63 -219 130 -318 151 -69 14 -86 22 -125 58 -136 127 -356 244 -553 295
-129 33 -229 42 -402 39 l-166 -4 43 18 c24 10 88 31 143 47 327 93 688 69
960 -64 47 -23 85 -37 85 -31 0 14 -104 133 -160 182 -25 22 -72 59 -104 82
-67 46 -67 47 16 26z m-2102 -100 c-24 -25 -46 -45 -49 -45 -3 0 15 20 39 45
24 25 46 45 49 45 3 0 -15 -20 -39 -45z m-70 -68 c0 -2 -17 -19 -37 -38 l-38
-34 34 38 c33 34 41 42 41 34z m-110 -121 c0 -2 -8 -10 -17 -17 -16 -13 -17
-12 -4 4 13 16 21 21 21 13z m90 -40 c0 -2 -8 -10 -17 -17 -16 -13 -17 -12 -4
4 13 16 21 21 21 13z m-140 -20 c0 -2 -8 -10 -17 -17 -16 -13 -17 -12 -4 4 13
16 21 21 21 13z m1881 -181 c117 -39 244 -148 316 -269 l32 -56 -55 0 c-53 0
-59 3 -110 50 -98 89 -227 135 -329 116 -29 -6 -39 -14 -51 -41 -16 -40 -18
-115 -4 -167 15 -52 68 -127 117 -164 l41 -31 -59 -18 c-69 -21 -82 -17 -160
53 -56 50 -114 158 -129 242 -21 109 21 244 87 282 64 38 196 39 304 3z
m-1413 -487 c-7 -13 -11 -26 -10 -30 1 -3 -6 -9 -15 -12 -14 -6 -14 -4 -1 16
8 13 18 29 22 36 13 22 17 13 4 -10z m992 -212 c0 -3 -4 -8 -10 -11 -5 -3 -10
-1 -10 4 0 6 5 11 10 11 6 0 10 -2 10 -4z m-1973 -128 c-3 -8 -6 -5 -6 6 -1
11 2 17 5 13 3 -3 4 -12 1 -19z m-10 -40 c-3 -8 -6 -5 -6 6 -1 11 2 17 5 13 3
-3 4 -12 1 -19z m13 -24 c0 -2 -9 -8 -20 -14 -15 -8 -18 -8 -14 3 4 11 34 21
34 11z m2154 -104 c-12 -19 -21 -26 -25 -18 -5 8 -12 8 -21 2 -8 -5 0 3 17 18
39 36 50 35 29 -2z m-154 -103 c0 -2 -12 -14 -27 -28 l-28 -24 24 28 c23 25
31 32 31 24z m-1799 -34 c13 -16 12 -17 -3 -4 -10 7 -18 15 -18 17 0 8 8 3 21
-13z m4165 -195 c-4 -35 -18 -92 -30 -128 -33 -92 -93 -208 -99 -190 -30 86
-30 87 3 185 30 91 96 195 122 195 7 0 8 -21 4 -62z m1014 -12 c0 -2 -7 -7
-16 -10 -8 -3 -12 -2 -9 4 6 10 25 14 25 6z m-4753 -570 c-14 -44 -17 -44 -17
-4 0 23 5 35 14 35 11 0 12 -7 3 -31z m2336 -204 c68 -71 152 -133 329 -245
92 -57 193 -125 226 -151 273 -210 407 -449 401 -718 -1 -48 -4 -100 -7 -115
-5 -25 -6 -24 -18 17 -7 24 -11 46 -9 49 3 2 5 -1 5 -7 0 -7 4 -12 8 -12 5 0
9 23 11 50 2 47 -3 55 -31 51 -4 0 -6 12 -6 28 1 15 -2 33 -6 40 -4 6 -3 11 3
11 5 0 13 14 16 31 6 28 3 35 -25 57 -25 19 -29 27 -18 34 9 7 7 8 -10 5 -14
-3 -26 1 -32 11 -8 15 -10 15 -10 -3 -1 -16 -4 -14 -12 8 -5 15 -14 24 -20 21
-7 -4 -8 -2 -4 4 14 23 14 51 1 62 -9 8 -15 8 -20 0 -3 -5 0 -10 8 -10 7 0 14
-7 14 -15 0 -19 -5 -19 -25 1 -10 11 -17 13 -20 5 -2 -6 -8 -11 -13 -11 -4 0
-6 7 -3 15 5 11 2 13 -10 9 -9 -3 -19 -17 -22 -30 -4 -13 -14 -29 -23 -34 -13
-9 -12 -10 9 -8 14 2 24 -2 23 -8 -1 -7 9 -9 25 -7 19 3 23 2 14 -5 -8 -5 -13
-13 -13 -18 1 -5 -7 -9 -16 -9 -10 0 -21 -8 -26 -19 -4 -10 -13 -16 -21 -13
-18 7 -28 -17 -13 -32 8 -8 8 -11 -2 -11 -7 0 -11 -6 -8 -14 4 -9 -3 -16 -16
-20 -18 -5 -20 -8 -7 -16 12 -8 11 -10 -7 -10 -12 0 -24 6 -26 13 -6 13 2 -49
9 -70 2 -7 13 -13 24 -13 19 0 20 -1 5 -36 -10 -25 -15 -70 -15 -142 0 -58 -3
-102 -7 -99 -3 4 -5 38 -4 76 5 142 -38 337 -109 504 -69 160 -166 303 -332
488 -154 172 -217 266 -258 384 -28 82 -25 87 16 25 19 -30 54 -74 77 -98z
m-953 -207 c0 -5 -5 -3 -10 5 -5 8 -10 20 -10 25 0 6 5 3 10 -5 5 -8 10 -19
10 -25z m28 -60 c-3 -3 -9 2 -12 12 -6 14 -5 15 5 6 7 -7 10 -15 7 -18z m32
-55 c6 -11 8 -20 6 -20 -3 0 -10 9 -16 20 -6 11 -8 20 -6 20 3 0 10 -9 16 -20z
m-196 -148 c-1 -2 -10 11 -19 28 -9 18 -12 29 -6 26 7 -5 12 4 12 21 1 16 5 7
9 -22 4 -27 6 -52 4 -53z m260 48 c14 -22 72 -88 127 -148 l102 -107 -114 116
c-63 64 -122 130 -132 147 -26 45 -15 40 17 -8z m-2014 -21 c0 -6 -4 -7 -10
-4 -5 3 -10 11 -10 16 0 6 5 7 10 4 6 -3 10 -11 10 -16z m3610 -369 c0 -5 -5
-10 -11 -10 -5 0 -7 5 -4 10 3 6 8 10 11 10 2 0 4 -4 4 -10z m82 -272 c-5 -31
-5 -32 -14 -8 -7 20 0 36 18 40 0 0 -2 -14 -4 -32z m42 -18 l17 -35 -20 25
c-11 14 -21 31 -21 39 0 18 4 14 24 -29z m-47 -157 c-3 -10 -5 -2 -5 17 0 19
2 27 5 18 2 -10 2 -26 0 -35z m-427 -667 c0 -2 -8 -10 -17 -17 -16 -13 -17
-12 -4 4 13 16 21 21 21 13z m-3932 -788 l-3 -91 -180 -1 -180 -1 -3 -403 -2
-403 -97 3 -96 3 -3 400 -2 400 -181 0 -181 0 0 93 0 92 465 0 466 0 -3 -92z
m1070 63 c61 -28 103 -71 127 -134 14 -37 16 -70 14 -174 -4 -119 -6 -131 -32
-175 -30 -52 -93 -95 -151 -105 -20 -3 -36 -10 -36 -14 0 -5 56 -85 125 -179
69 -94 125 -172 125 -175 0 -3 -51 -5 -113 -5 l-112 0 -130 180 -130 180 -137
0 -138 0 0 -180 0 -181 -95 3 -95 3 0 488 c0 268 0 490 0 493 0 3 163 4 363 2
356 -3 363 -3 415 -27z m712 -466 l0 -495 -95 0 -95 0 0 495 0 495 95 0 95 0
0 -495z m920 -15 l0 -90 -270 0 -270 0 0 90 0 90 270 0 270 0 0 -90z m-2075
-923 c24 -34 0 -45 -29 -14 -31 33 -57 34 -92 4 -21 -18 -27 -32 -27 -65 0
-58 25 -92 67 -92 20 0 40 8 51 20 19 21 45 27 45 11 0 -21 -63 -61 -94 -61
-92 0 -138 136 -69 204 41 41 117 37 148 -7z m300 1 c20 -24 25 -41 25 -85 0
-49 -3 -58 -32 -85 -28 -26 -38 -30 -76 -25 -53 6 -80 30 -92 81 -27 120 100
203 175 114z m3122 10 c42 -40 22 -53 -26 -17 -74 55 -150 -59 -90 -135 25
-32 71 -35 96 -6 19 21 43 27 43 10 0 -23 -50 -60 -79 -60 -73 0 -111 42 -111
123 0 98 99 149 167 85z m300 6 c27 -17 46 -82 37 -129 -8 -43 -54 -85 -94
-85 -70 0 -110 45 -110 124 0 94 88 142 167 90z m636 -15 c22 -24 27 -39 27
-80 0 -29 -7 -60 -16 -75 -13 -19 -14 -28 -5 -37 6 -6 11 -15 11 -19 0 -13
-28 -9 -32 4 -3 7 -25 12 -55 12 -29 1 -58 7 -68 16 -29 24 -47 78 -40 119 8
44 23 66 61 86 39 20 82 11 117 -26z m-3762 2 c24 -24 29 -38 29 -76 0 -88
-40 -125 -136 -125 l-44 0 0 115 0 115 61 0 c54 0 64 -3 90 -29z m289 13 c0
-13 -10 -15 -52 -12 l-53 3 -3 -37 -3 -38 56 0 c35 0 54 -4 50 -10 -3 -5 -28
-10 -56 -10 l-49 0 0 -40 0 -40 55 0 c42 0 55 -3 55 -15 0 -12 -14 -15 -70
-15 l-70 0 0 115 0 115 70 0 c57 0 70 -3 70 -16z m742 -1 c22 -20 23 -56 3
-73 -14 -12 -13 -15 5 -35 27 -29 25 -59 -7 -85 -21 -17 -38 -20 -82 -18 l-56
3 -3 113 -3 112 62 0 c44 0 68 -5 81 -17z m168 -65 c0 -92 13 -118 61 -118 48
0 59 22 59 116 0 68 3 84 15 84 12 0 15 -17 15 -90 0 -83 -2 -93 -25 -115 -40
-41 -121 -29 -144 22 -6 13 -11 60 -11 103 0 64 3 80 15 80 12 0 15 -16 15
-82z m310 -33 c0 -96 -3 -115 -15 -115 -12 0 -15 19 -15 115 0 96 3 115 15
115 12 0 15 -19 15 -115z m150 15 l0 -100 55 0 c42 0 55 -3 55 -15 0 -12 -14
-15 -70 -15 l-70 0 0 115 c0 96 3 115 15 115 12 0 15 -18 15 -100z m354 89
c27 -13 56 -64 56 -98 0 -74 -56 -121 -145 -121 l-45 0 0 115 0 115 55 0 c30
0 65 -5 79 -11z m1362 -76 l59 -88 3 88 c2 68 6 87 17 87 12 0 15 -21 15 -115
0 -94 -3 -115 -15 -115 -8 0 -40 38 -72 85 -32 47 -61 85 -65 85 -5 0 -8 -39
-8 -86 0 -64 -3 -85 -12 -82 -9 3 -14 38 -16 116 -2 104 -1 112 16 112 13 0
39 -29 78 -87z m564 3 c0 -93 11 -116 57 -116 50 0 63 24 63 117 0 67 3 83 15
83 12 0 15 -16 15 -84 0 -100 -4 -112 -41 -131 -43 -23 -86 -19 -114 10 -23
22 -25 32 -25 115 0 73 3 90 15 90 12 0 15 -16 15 -84z m420 68 c0 -13 -10
-15 -55 -12 -52 3 -55 2 -61 -24 -8 -40 1 -48 57 -48 66 0 63 -18 -3 -22 l-53
-3 0 -35 0 -35 58 -3 c43 -2 57 -7 57 -18 0 -12 -14 -14 -72 -12 l-73 3 0 112
0 113 73 0 c59 0 72 -3 72 -16z m246 8 c6 -4 17 -18 23 -30 15 -28 0 -77 -26
-86 -12 -5 -11 -13 11 -50 30 -52 31 -56 12 -56 -8 0 -27 23 -42 50 -23 42
-31 50 -52 47 -23 -3 -26 -8 -26 -48 -1 -32 -5 -44 -16 -44 -9 0 -15 9 -14 25
0 14 1 64 2 113 l2 87 58 0 c31 0 62 -4 68 -8z m-4016 -71 c-29 -8 -38 -44
-18 -68 11 -14 11 -15 0 -9 -40 24 -27 87 18 85 l25 -1 -25 -7z m-1563 -27
c-7 -7 -918 -6 -925 1 -3 3 205 5 463 5 258 0 466 -3 462 -6z m6203 -4 c-99
-11 -378 -12 -385 0 -4 7 65 9 217 8 123 -1 198 -4 168 -8z m-4609 -33 c-10
-9 -11 -8 -5 6 3 10 9 15 12 12 3 -3 0 -11 -7 -18z"/>
<path d="M5075 6334 c-11 -2 -55 -12 -97 -21 -43 -9 -78 -19 -78 -22 0 -4 31
-15 70 -25 50 -13 83 -29 117 -57 69 -57 125 -81 210 -89 67 -7 83 -13 175
-69 55 -33 105 -61 110 -61 10 0 -31 62 -104 159 -48 62 -48 64 -32 88 20 32
17 34 -91 69 -77 25 -227 40 -280 28z"/>
<path d="M5470 3870 c0 -5 5 -10 11 -10 5 0 7 5 4 10 -3 6 -8 10 -11 10 -2 0
-4 -4 -4 -10z"/>
<path d="M1814 2016 c-3 -7 -3 -68 -2 -137 3 -111 5 -124 21 -123 9 0 116 1
236 2 217 2 220 2 248 26 26 23 28 29 28 105 0 75 -2 83 -28 108 l-27 28 -236
2 c-177 1 -236 -2 -240 -11z"/>
<path d="M2135 765 c-19 -18 -25 -35 -25 -70 0 -54 25 -85 70 -85 45 0 70 31
70 85 0 51 -32 95 -70 95 -11 0 -32 -11 -45 -25z"/>
<path d="M5583 780 c-74 -30 -48 -170 31 -170 37 0 61 21 71 62 10 39 -11 93
-41 107 -29 13 -31 13 -61 1z"/>
<path d="M6196 766 c-52 -51 -26 -156 39 -156 27 0 32 9 13 28 -9 9 -9 12 3
12 8 0 21 -6 27 -12 18 -18 32 7 32 58 0 77 -67 118 -114 70z"/>
<path d="M2430 699 l0 -89 34 0 c19 0 45 9 60 21 21 16 26 29 26 64 0 56 -23
81 -77 88 l-43 5 0 -89z"/>
<path d="M3476 782 c-3 -3 -6 -20 -6 -39 0 -31 2 -33 33 -33 45 0 71 20 63 48
-5 13 -16 22 -29 23 -12 0 -30 2 -39 4 -9 2 -19 0 -22 -3z"/>
<path d="M3470 650 l0 -40 43 0 c62 0 86 30 51 64 -9 9 -32 16 -55 16 -39 0
-39 0 -39 -40z"/>
<path d="M4465 781 c-3 -2 -5 -42 -5 -88 l0 -83 38 0 c54 0 82 32 82 92 0 30
-6 50 -17 60 -17 15 -89 29 -98 19z"/>
<path d="M7057 783 c-2 -5 -3 -24 -3 -43 1 -29 5 -36 25 -38 47 -7 71 6 71 38
0 24 -6 33 -26 40 -30 12 -61 13 -67 3z"/>
</g>
</svg>
